<svg width="280" height="20" viewBox="0 0 280 20" fill="none" xmlns="http://www.w3.org/2000/svg">
<path fill-rule="evenodd" clip-rule="evenodd" d="M9.58905 14.2108V17.6772L0.0238237 14.1155H0V10.5658H0.0238237L9.58905 7.00415V10.4705L4.68136 12.3288L9.58905 14.2108Z" fill="#E0A830"/>
<path fill-rule="evenodd" clip-rule="evenodd" d="M74.6039 10.4109V13.9607H74.58L65.0267 17.4985V14.044L69.9225 12.1739L65.0267 10.3156V6.84927L74.58 10.4109H74.6039Z" fill="#E0A830"/>
<path fill-rule="evenodd" clip-rule="evenodd" d="M64.2526 1.95352L58.6302 20H55.2949L60.9173 1.95352H64.2526Z" fill="#E0A830"/>
<path fill-rule="evenodd" clip-rule="evenodd" d="M25.0388 10.1727V17.8558H21.7035V10.8755C21.7392 10.0893 21.501 9.32695 21.0126 8.73136C20.548 8.18341 19.869 7.89753 19.1543 7.92135C17.0697 7.92135 16.0215 9.3746 16.0215 12.2692V17.8558H12.6862V5.24118H16.0215V6.38472C17.0817 5.34839 18.5111 4.81236 20.0001 4.87191C21.3818 4.81236 22.7041 5.3603 23.6689 6.34898C24.6099 7.38532 25.1222 8.76709 25.0626 10.1727H25.0388Z" fill="#E0A830"/>
<path d="M32.6147 0H29.2793V17.8559H32.6147V0Z" fill="#E0A830"/>
<path fill-rule="evenodd" clip-rule="evenodd" d="M56.1762 5.2293L51.5068 17.8678H48.6956L45.9678 10.4348L43.2161 17.8678H40.4287L35.7474 5.2293H39.3209L41.9535 12.7933L44.6694 5.2293H47.2662L49.9821 12.8052L52.6146 5.2293H56.1762Z" fill="#E0A830"/>
<path d="M106.337 15.3067C106.337 17.9035 104.241 20 101.644 20H88.2668C85.67 20 83.5735 17.9035 83.5735 15.3067V7.43298C83.5735 4.8362 85.67 2.73971 88.2668 2.73971H101.644C104.241 2.73971 106.337 4.8362 106.337 7.43298V15.3067ZM103.335 16.9982V5.7415H86.5753V16.9982H103.335Z" fill="#E0A830"/>
<path d="M127.909 2.73972H109.839V20H112.841V5.74151H129.601V11.7451H117.415V14.7469H127.909C130.506 14.7469 132.603 12.6504 132.603 10.0536V7.43299C132.603 4.83621 130.506 2.73972 127.909 2.73972Z" fill="#E0A830"/>
<path d="M158.428 20H140.357C137.76 20 135.664 17.9035 135.664 15.3067V7.43299C135.664 4.83621 137.76 2.73972 140.357 2.73972H158.428V5.74151H138.666V9.86301H158.428V12.8648H138.666V16.9863H158.428V20Z" fill="#E0A830"/>
<path d="M184.693 10.0536V7.43299C184.693 4.83621 182.597 2.73972 180 2.73972H161.929V20H164.931V5.74151H181.691V11.7451H169.505V14.7469H181.691V20H184.693V16.4384C184.693 14.997 183.943 13.8773 182.775 13.246C183.943 12.6266 184.693 11.4949 184.693 10.0536Z" fill="#E0A830"/>
<path d="M191.185 2.78734H188.183V20H191.185V2.78734Z" fill="#E0A830"/>
<path d="M213.949 20H209.351L204.479 15.8785H195.759V12.8767H200.905L191.185 4.68132L191.185 2.78734H193.293C193.579 2.91837 193.841 3.08513 194.068 3.27572L213.949 20Z" fill="#E0A830"/>
<path d="M228.171 5.74151H218.416V20H215.414V5.74151H205.658V2.73972H228.171V5.74151Z" fill="#E0A830"/>
<path d="M252.936 15.3067C252.936 17.9035 250.84 20 248.243 20H234.866C232.269 20 230.173 17.9035 230.173 15.3067V7.43299C230.173 4.83621 232.269 2.73972 234.866 2.73972H248.243C250.84 2.73972 252.936 4.83621 252.936 7.43299V15.3067ZM249.934 16.9982V5.74151H233.174V16.9982H249.934Z" fill="#E0A830"/>
<path d="M279.202 10.0536V7.43299C279.202 4.83621 277.105 2.73972 274.509 2.73972H256.438V20H259.44V5.74151H276.2V11.7451H264.014V14.7469H276.2V20H279.202V16.4384C279.202 14.997 278.451 13.8773 277.284 13.246C278.451 12.6266 279.202 11.4949 279.202 10.0536Z" fill="#E0A830"/>
</svg>
